# xmcd
#
# Track frame offsets:
#	150
#	17805
#	33374
#	58464
#	75015
#	100058
#	115459
#	144027
#	166965
#	186054
#	212171
#	231925
#
# Disc length: 3335 seconds
#
# Revision: 1
# Processed by: cddbd v1.5.2PL0 Copyright (c) Steve Scherf et al.
# Submitted via: EZCDAudioConverter 1.0.6.1
#
DISCID=970d050c
DTITLE=David Egan
DYEAR=2013
DGENRE=Blues
TTITLE0=That's a Big Ol' Hurt
TTITLE1=Call Your Children Home
TTITLE2=Outta Mississippi
TTITLE3=Blues How They Linger
TTITLE4=Dance to the Blues with Me
TTITLE5=One Foot in the Bayou
TTITLE6=The Outside
TTITLE7=Funky Dreams
TTITLE8=Dead End Friend
TTITLE9=Sad Sad Satisfaction
TTITLE10=Rootbeer Baby
TTITLE11=Every Tear
EXTD=
EXTT0=
EXTT1=
EXTT2=
EXTT3=
EXTT4=
EXTT5=
EXTT6=
EXTT7=
EXTT8=
EXTT9=
EXTT10=
EXTT11=
PLAYORDER=
